<svg xmlns="http://www.w3.org/2000/svg" xmlns:xlink="http://www.w3.org/1999/xlink" width="1024" height="1024" viewBox="0 0 1024 1024">
  <defs>
    <clipPath id="clip-Intro_-_7_10">
      <rect width="1024" height="1024"/>
    </clipPath>
  </defs>
  <g id="Intro_-_7_10" data-name="Intro - 7 – 10" clip-path="url(#clip-Intro_-_7_10)">
    <rect width="1024" height="1024" fill="none"/>
    <path id="Path_24" data-name="Path 24" d="M211.38-567.06c70.98,4.68,129.48,69.42,111.54,145.86-9.36,45.24-48.36,88.92-105.3,125.58L356.46-119.34c18.72-25.74,28.08-70.2,27.3-111.54l56.16,5.46C437.58-169.26,418.08-113.1,390-78L453.96,0H389.22L356.46-41.34C323.7-9.36,273.78,9.36,216.84,9.36,109.2,9.36,30.42-46.8,30.42-144.3c0-82.68,46.8-114.66,112.32-163.02-35.1-45.24-60.06-92.04-60.06-136.5C82.68-521.82,142.74-570.96,211.38-567.06ZM85.8-144.3c0,63.96,53.82,103.74,131.04,103.74,43.68,0,81.9-15.6,103.74-40.56L174.72-265.98C126.36-234,85.8-197.34,85.8-144.3Zm50.7-297.96c0,29.64,18.72,64.74,49.92,106.08C241.8-366.6,273-402.48,273-439.14c0-42.9-25.74-73.32-64.74-74.88C166.92-515.58,136.5-484.38,136.5-442.26Z" transform="translate(269.81 790.958)" fill="currentColor"/>
  </g>
</svg>
