<svg xmlns="http://www.w3.org/2000/svg" xmlns:xlink="http://www.w3.org/1999/xlink" width="1024" height="1024" viewBox="0 0 1024 1024">
  <defs>
    <clipPath id="clip-Intro_-_7_11">
      <rect width="1024" height="1024"/>
    </clipPath>
  </defs>
  <g id="Intro_-_7_11" data-name="Intro - 7 – 11" clip-path="url(#clip-Intro_-_7_11)">
    <rect width="1024" height="1024" fill="none"/>
    <path id="Path_25" data-name="Path 25" d="M294.84-382.2l-2.34,34.32a66.931,66.931,0,0,0-62.4-41.34c-56.94,0-106.86,68.64-117,163.02-10.92,94.38,25.74,163.02,87.36,163.02,34.32,0,68.64-28.86,84.24-71.76C299.52-23.4,440.7-26.52,448.5-257.4c5.46-176.28-70.2-296.4-186.42-296.4C126.36-553.8,25.74-421.98,19.5-234,10.14,19.5,174.72,116.22,336.18,22.62l-19.5-41.34C173.94,57.72,58.5-17.16,66.3-234c6.24-160.68,86.58-273.78,194.22-273.78,88.92,0,145.86,102.18,141.18,254.28-3.9,98.28-21.06,148.2-49.92,148.2-20.28,0-29.64-34.32-24.18-97.5l14.04-179.4ZM163.02-228.54c7.02-74.1,36.66-124.02,72.54-124.02,36.66,0,54.6,49.92,47.58,124.02-7.02,74.88-34.32,124.8-69.42,124.8C176.28-103.74,156-153.66,163.02-228.54Z" transform="translate(278.052 760.07)" fill="currentColor"/>
  </g>
</svg>
