<svg xmlns="http://www.w3.org/2000/svg" xmlns:xlink="http://www.w3.org/1999/xlink" width="1024" height="1024" viewBox="0 0 1024 1024">
  <defs>
    <clipPath id="clip-Intro_-_7_1">
      <rect width="1024" height="1024"/>
    </clipPath>
  </defs>
  <g id="Intro_-_7_1" data-name="Intro - 7 – 1" clip-path="url(#clip-Intro_-_7_1)">
    <rect width="1024" height="1024" fill="none"/>
    <path id="Path_16" data-name="Path 16" d="M96.72-178.62l-56.16,3.9c5.46,97.5,78,168.48,173.16,181.74V70.98H261.3V8.58C351,3.12,431.34-52.26,431.34-142.74c0-80.34-70.98-127.92-170.04-159.9V-508.56c55.38,14.04,95.16,59.28,100.62,120.12l56.94-3.9c-7.02-88.14-70.2-156.78-157.56-170.82V-627.9H213.72v61.62C118.56-561.6,51.48-504.66,51.48-416.52c0,82.68,71.76,126.36,162.24,152.88V-47.58C149.76-61.62,105.3-112.32,96.72-178.62Zm11.7-237.9c0-56.16,45.24-92.82,105.3-96.72v195.78C151.32-338.52,108.42-363.48,108.42-416.52ZM261.3-43.68V-248.82c77.22,27.3,113.88,60.84,113.88,110.76C375.18-82.68,325.26-47.58,261.3-43.68Z" transform="translate(276.05 809)" fill="currentColor"/>
  </g>
</svg>
